custom-analysis
version=1
nRows=7
nColumns=98
inDegrees=no

This file contains tibia displacement and acting force.

Units are S.I. units (seconds, meters, Newtons, ...)
Angles are in degrees.

endheader
time	APT	SIT	knee_angle	aACL_R_force	pACL_R_force	aPCL_R_force	pPCL_R_force	aMCL_R_force	mMCL_R_force	pMCL_R_force	aLCL_R_force	mLCL_R_force	pLCL_R_force	aPCL_L_force	pPCL_L_force	aMCL_L_force	aLCL_L_force	aACL_R_length	pACL_R_length	aPCL_R_length	pPCL_R_length	aMCL_R_length	mMCL_R_length	pMCL_R_length	aLCL_R_length	mLCL_R_length	pLCL_R_length	aPCL_L_length	pPCL_L_length	aMCL_L_length	aLCL_L_length	aACL_R_strain	pACL_R_strain	aPCL_R_strain	pPCL_R_strain	aMCL_R_strain	mMCL_R_strain	pMCL_R_strain	aLCL_R_strain	mLCL_R_strain	pLCL_R_strain	aPCL_L_strain	pPCL_L_strain	aMCL_L_strain	aLCL_L_strain	femur_lat_meniscii_r.femur_lat_r.force.X	femur_lat_meniscii_r.femur_lat_r.force.Y	femur_lat_meniscii_r.femur_lat_r.force.Z	femur_lat_meniscii_r.femur_lat_r.torque.X	femur_lat_meniscii_r.femur_lat_r.torque.Y	femur_lat_meniscii_r.femur_lat_r.torque.Z	femur_lat_meniscii_r.meniscus_lat_r.force.X	femur_lat_meniscii_r.meniscus_lat_r.force.Y	femur_lat_meniscii_r.meniscus_lat_r.force.Z	femur_lat_meniscii_r.meniscus_lat_r.torque.X	femur_lat_meniscii_r.meniscus_lat_r.torque.Y	femur_lat_meniscii_r.meniscus_lat_r.torque.Z	femur_med_meniscii_r.femur_med_r.force.X	femur_med_meniscii_r.femur_med_r.force.Y	femur_med_meniscii_r.femur_med_r.force.Z	femur_med_meniscii_r.femur_med_r.torque.X	femur_med_meniscii_r.femur_med_r.torque.Y	femur_med_meniscii_r.femur_med_r.torque.Z	femur_med_meniscii_r.meniscus_med_r.force.X	femur_med_meniscii_r.meniscus_med_r.force.Y	femur_med_meniscii_r.meniscus_med_r.force.Z	femur_med_meniscii_r.meniscus_med_r.torque.X	femur_med_meniscii_r.meniscus_med_r.torque.Y	femur_med_meniscii_r.meniscus_med_r.torque.Z	femur_med_tibia_r.tibia_upper_r.force.X	femur_med_tibia_r.tibia_upper_r.force.Y	femur_med_tibia_r.tibia_upper_r.force.Z	femur_med_tibia_r.tibia_upper_r.torque.X	femur_med_tibia_r.tibia_upper_r.torque.Y	femur_med_tibia_r.tibia_upper_r.torque.Z	femur_med_tibia_r.femur_med_r.force.X	femur_med_tibia_r.femur_med_r.force.Y	femur_med_tibia_r.femur_med_r.force.Z	femur_med_tibia_r.femur_med_r.torque.X	femur_med_tibia_r.femur_med_r.torque.Y	femur_med_tibia_r.femur_med_r.torque.Z	femur_lat_tibia_r.tibia_upper_r.force.X	femur_lat_tibia_r.tibia_upper_r.force.Y	femur_lat_tibia_r.tibia_upper_r.force.Z	femur_lat_tibia_r.tibia_upper_r.torque.X	femur_lat_tibia_r.tibia_upper_r.torque.Y	femur_lat_tibia_r.tibia_upper_r.torque.Z	femur_lat_tibia_r.femur_lat_r.force.X	femur_lat_tibia_r.femur_lat_r.force.Y	femur_lat_tibia_r.femur_lat_r.force.Z	femur_lat_tibia_r.femur_lat_r.torque.X	femur_lat_tibia_r.femur_lat_r.torque.Y	femur_lat_tibia_r.femur_lat_r.torque.Z	femur_lat_meniscii_force_r	femur_med_meniscii_force_r	femur_lat_tibia_force_r	femur_med_tibia_force_r
      0.11319351	      0.00874635	      0.00826790	     30.55356423	      8.64094352	    -12.38192555	     26.52016990	     62.64950706	      0.00000000	      0.00000000	      0.00000000	      0.00000000	      0.00000000	      0.00000000	      0.00000000	      0.00000000	      0.00000001	      0.00000000	      0.03244839	      0.02531625	      0.03128577	      0.03034390	      0.05744050	      0.05950604	      0.05859630	      0.05330671	      0.05010706	      0.04641134	      0.01525851	      0.01651186	      0.06550154	      0.04489616	      0.04653660	      0.01027801	      0.00612543	      0.01526028	     -0.04308900	     -0.00480750	     -0.00224261	     -0.04770677	     -0.11029293	     -0.11331784	      0.00000079	     -0.32847694	      0.00000060	     -0.00000086	     51.61014209	    260.89053254	     34.65998383	    -20.51442051	      1.29960908	     20.15582955	    -51.61014209	   -260.89053254	    -34.65998383	      7.77476816	     -1.77900650	      2.42252827	    -20.37830631	     54.41276553	      9.21691282	     -2.49453505	      0.46930027	     -8.31029153	     20.37830631	    -54.41276553	     -9.21691282	     -0.92265345	     -0.52975414	      1.11188865	   -132.05929943	   -554.03320558	    127.38732314	    -13.21741057	      3.20120634	      0.23307003	    132.05929943	    554.03320558	   -127.38732314	     63.01361830	     -2.07164949	     56.30210266	    -41.23131560	   -141.26083822	    -35.50030554	      4.75633307	     -1.45993914	      0.28658023	     41.23131560	    141.26083822	     35.50030554	    -18.05242097	      0.99177799	     17.01884922	    268.19543474	     58.83005951	    151.37674027	    583.62657715
      0.11423041	      0.00884288	      0.00842176	     31.04192493	      8.12431095	    -12.53218871	     29.08795395	     68.33457451	      0.00000000	      0.00000000	      0.00000000	      0.00000000	      0.00000000	      0.00000000	      0.00000000	      0.00000000	      0.00000001	      0.00000000	      0.03242832	      0.02528264	      0.03135599	      0.03038540	      0.05747862	      0.05949611	      0.05853886	      0.05329516	      0.05006427	      0.04633859	      0.01525851	      0.01651186	      0.06550154	      0.04489616	      0.04588942	      0.00893656	      0.00838354	      0.01664889	     -0.04245395	     -0.00497360	     -0.00322063	     -0.04791314	     -0.11105257	     -0.11470767	      0.00000079	     -0.32847694	      0.00000060	     -0.00000086	     47.65488312	    256.68245728	     34.84717686	    -20.49769032	      1.18971515	     18.48162735	    -47.65488312	   -256.68245728	    -34.84717686	      7.66932581	     -1.66834817	      2.58725049	    -18.69437491	     52.62472956	      9.86561870	     -2.80639502	      0.42692090	     -7.62315990	     18.69437491	    -52.62472956	     -9.86561870	     -0.86421781	     -0.50018742	      1.05852532	   -138.44176419	   -552.59857941	    126.52844589	    -13.15367778	      3.33177054	      0.15623981	    138.44176419	    552.59857941	   -126.52844589	     62.60371044	     -2.19619111	     58.90928725	    -40.39415983	   -134.38568891	    -34.23045632	      4.53354268	     -1.43107191	      0.26938193	     40.39415983	    134.38568891	     34.23045632	    -17.36257973	      0.97331920	     16.66681023	    263.38412537	     56.71130617	    144.44004179	    583.55870284
      0.11556895	      0.00896784	      0.00862298	     31.67605268	      6.33324769	    -13.71640913	     32.53513402	     74.22838541	      0.00000000	      0.00000000	      0.00000000	      0.00000000	      0.00000000	      0.00000000	      0.00000000	      0.00000000	      0.00000001	      0.00000000	      0.03240050	      0.02523791	      0.03144742	      0.03043877	      0.05752787	      0.05948275	      0.05846425	      0.05328052	      0.05000880	      0.04624438	      0.01525851	      0.01651186	      0.06550154	      0.04489616	      0.04499194	      0.00715157	      0.01132399	      0.01843473	     -0.04163348	     -0.00519701	     -0.00449098	     -0.04817460	     -0.11203757	     -0.11650752	      0.00000079	     -0.32847694	      0.00000060	     -0.00000086	     45.73460812	    258.10798531	     33.19440260	    -19.83002741	      1.14186669	     17.61851413	    -45.73460812	   -258.10798531	    -33.19440260	      7.62539851	     -1.60471229	      2.79571276	    -17.56143055	     52.88803521	     10.84418681	     -3.20351089	      0.40043695	     -7.16007718	     17.56143055	    -52.88803521	    -10.84418681	     -0.84314652	     -0.49005431	      1.04385951	   -145.50014529	   -549.73500227	    127.10387818	    -13.12146712	      3.49920371	      0.10555509	    145.50014529	    549.73500227	   -127.10387818	     62.76835069	     -2.33447539	     61.76447447	    -38.25792886	   -124.68992738	    -31.98123140	      4.20529465	     -1.35941806	      0.26995271	     38.25792886	    124.68992738	     31.98123140	    -16.19881308	      0.92448850	     15.77316032	    264.22198021	     56.77274433	    134.29090168	    582.69568460
      0.11648150	      0.00905246	      0.00876308	     32.11050414	      5.31483654	    -14.27172819	     35.32750793	     78.20097532	      0.00000000	      0.00000000	      0.00000000	      0.00000000	      0.00000000	      0.00000000	      0.00000000	      0.00000000	      0.00000001	      0.00000000	      0.03237911	      0.02520547	      0.03150940	      0.03047422	      0.05756009	      0.05947199	      0.05841181	      0.05326940	      0.04996952	      0.04617870	      0.01525851	      0.01651186	      0.06550154	      0.04489616	      0.04430204	      0.00585699	      0.01331706	      0.01962062	     -0.04109667	     -0.00537699	     -0.00538392	     -0.04837334	     -0.11273508	     -0.11776243	      0.00000079	     -0.32847694	      0.00000060	     -0.00000086	     43.87709218	    259.93807287	     33.24351845	    -19.89786071	      1.08377581	     16.79309336	    -43.87709218	   -259.93807287	    -33.24351845	      7.67074685	     -1.54808712	      2.97564416	    -16.10524688	     53.21285700	     11.34484316	     -3.39862799	      0.36560947	     -6.55297284	     16.10524688	    -53.21285700	    -11.34484316	     -0.84042764	     -0.46594801	      1.00580606	   -152.80395885	   -554.48638259	    128.29265198	    -13.22975491	      3.66166504	      0.05149609	    152.80395885	    554.48638259	   -128.29265198	     63.32898365	     -2.47216282	     64.76065908	    -36.90981929	   -119.24957973	    -30.86553103	      4.02508366	     -1.31859303	      0.28081496	     36.90981929	    119.24957973	     30.86553103	    -15.60586785	      0.89465418	     15.20568941	    265.70309081	     56.74233511	    128.59034968	    589.29042320
      0.11739406	      0.00913766	      0.00890496	     32.54680658	      4.66730034	    -14.44658746	     38.69301509	     82.69602044	      0.00000000	      0.00000000	      0.00000000	      0.00000000	      0.00000000	      0.00000000	      0.00000000	      0.00000000	      0.00000001	      0.00000000	      0.03235688	      0.02517249	      0.03157103	      0.03050888	      0.05759179	      0.05946044	      0.05835867	      0.05325785	      0.04992961	      0.04611239	      0.01525851	      0.01651186	      0.06550154	      0.04489616	      0.04358532	      0.00454094	      0.01529911	      0.02078041	     -0.04056861	     -0.00557009	     -0.00628885	     -0.04857951	     -0.11344368	     -0.11902919	      0.00000079	     -0.32847694	      0.00000060	     -0.00000086	     43.86535966	    258.39780404	     31.92991880	    -19.30346157	      1.08082178	     16.75982065	    -43.86535966	   -258.39780404	    -31.92991880	      7.56898770	     -1.53432171	      3.03103153	    -14.89191401	     52.93347738	     11.81267204	     -3.59463349	      0.33600666	     -6.05603674	     14.89191401	    -52.93347738	    -11.81267204	     -0.82536874	     -0.44632966	      0.97822598	   -161.18749481	   -560.01976801	    130.08844963	    -13.37739305	      3.84389224	     -0.03065886	    161.18749481	    560.01976801	   -130.08844963	     64.16324472	     -2.62375678	     68.20999534	    -36.35212913	   -115.58183010	    -30.04503593	      3.89988321	     -1.30094447	      0.28790443	     36.35212913	    115.58183010	     30.04503593	    -15.17714659	      0.88330545	     14.96333433	    264.03241207	     56.24287822	    124.83325248	    597.09844563
      0.11860333	      0.00925182	      0.00909466	     33.12782415	      4.10159041	    -14.32812299	     44.10509632	     89.47054187	      0.00000000	      0.00000000	      0.00000000	      0.00000000	      0.00000000	      0.00000000	      0.00000000	      0.00000000	      0.00000001	      0.00000000	      0.03232721	      0.02512894	      0.03165285	      0.03055436	      0.05763395	      0.05944493	      0.05828819	      0.05324303	      0.04987695	      0.04602478	      0.01525851	      0.01651186	      0.06550154	      0.04489616	      0.04262830	      0.00280309	      0.01793029	      0.02230217	     -0.03986624	     -0.00582948	     -0.00748887	     -0.04884428	     -0.11437877	     -0.12070305	      0.00000079	     -0.32847694	      0.00000060	     -0.00000086	     43.97008832	    257.46036931	     32.48740194	    -19.53186290	      1.08057406	     16.77887016	    -43.97008832	   -257.46036931	    -32.48740194	      7.57361846	     -1.54673716	      3.10033065	    -13.06948951	     52.17961813	     12.27045103	     -3.79763228	      0.29185323	     -5.30489477	     13.06948951	    -52.17961813	    -12.27045103	     -0.80081073	     -0.41403246	      0.92656858	   -171.12217024	   -565.00301456	    131.04232248	    -13.48125426	      4.05905371	     -0.11550156	    171.12217024	    565.00301456	   -131.04232248	     64.62823156	     -2.81152514	     72.28485098	    -35.72058245	   -110.90824644	    -28.84746495	      3.73362598	     -1.27768803	      0.29332675	     35.72058245	    110.90824644	     28.84746495	    -14.56579154	      0.86978879	     14.68790825	    263.20076314	     55.17325505	    120.03655848	    604.71753231
      0.11955902	      0.00934268	      0.00924558	     33.58917063	      3.73448674	    -14.10138333	     49.00204639	     94.88381541	      0.00000000	      0.00000000	      0.00000000	      0.00000000	      0.00000000	      0.00000000	      0.00000000	      0.00000000	      0.00000001	      0.00000000	      0.03230400	      0.02509517	      0.03171783	      0.03059016	      0.05766758	      0.05943272	      0.05823265	      0.05323188	      0.04983568	      0.04595592	      0.01525851	      0.01651186	      0.06550154	      0.04489616	      0.04187968	      0.00145527	      0.02002006	      0.02349980	     -0.03930600	     -0.00603377	     -0.00843460	     -0.04904359	     -0.11511145	     -0.12201849	      0.00000079	     -0.32847694	      0.00000060	     -0.00000086	     43.19569150	    255.61580820	     32.18027119	    -19.36727059	      1.05548834	     16.43457279	    -43.19569150	   -255.61580820	    -32.18027119	      7.51658809	     -1.52139095	      3.17341915	    -11.86380878	     51.65688704	     12.52261527	     -3.90971694	      0.26343027	     -4.81204660	     11.86380878	    -51.65688704	    -12.52261527	     -0.78761857	     -0.39329840	      0.89755223	   -178.23301204	   -566.12826680	    131.22447375	    -13.49463183	      4.20878509	     -0.17801204	    178.23301204	    566.12826680	   -131.22447375	     64.70451169	     -2.94460372	     75.18673307	    -34.60203979	   -107.02277776	    -27.92696142	      3.60138143	     -1.24612257	      0.31701347	     34.60203979	    107.02277776	     27.92696142	    -14.09168352	      0.84697295	     14.21030819	    261.22955235	     54.46099366	    115.89258514	    607.85531466
